<?xml version="1.0" standalone="no"?>
<!DOCTYPE svg PUBLIC "-//W3C//DTD SVG 20010904//EN"
 "http://www.w3.org/TR/2001/REC-SVG-20010904/DTD/svg10.dtd">
<svg version="1.0" xmlns="http://www.w3.org/2000/svg"
 width="1280.000000pt" height="918.000000pt" viewBox="0 0 1280.000000 918.000000"
 preserveAspectRatio="xMidYMid meet">
<metadata>
Created by potrace 1.15, written by Peter Selinger 2001-2017
</metadata>
<g transform="translate(0.000000,918.000000) scale(0.100000,-0.100000)"
fill="#000000" stroke="none">
<path d="M9656 9171 c-3 -4 -107 -286 -232 -627 -1184 -3237 -2219 -4945
-3121 -5149 -105 -24 -130 -26 -233 -21 -275 16 -560 155 -910 445 -108 89
-192 166 -639 579 -285 264 -573 489 -715 559 -54 26 -71 43 -42 43 8 0 358
32 778 70 419 39 799 74 844 77 l81 6 7 -84 c5 -46 9 -86 11 -90 4 -5 473 36
480 43 2 2 -6 111 -18 241 l-21 237 -29 0 c-36 0 -451 -41 -455 -44 -1 -2 1
-42 6 -90 l8 -86 -31 -5 c-16 -3 -82 -9 -145 -15 -130 -11 -1392 -127 -1485
-136 l-60 -6 -18 59 c-60 188 -229 355 -422 416 -101 32 -299 32 -400 0 -142
-45 -289 -161 -363 -286 -37 -62 -77 -171 -87 -239 l-7 -44 -236 -22 c-131
-12 -482 -45 -782 -72 -300 -28 -580 -54 -622 -58 l-78 -8 -4 30 c-3 17 -8 57
-11 89 l-6 57 -39 0 c-52 0 -366 -29 -410 -38 l-36 -7 22 -234 c13 -128 25
-235 28 -238 5 -5 284 17 425 33 l54 7 -7 88 c-7 86 -6 89 16 93 13 3 176 19
363 35 187 17 560 51 829 76 269 25 491 43 493 41 2 -2 -11 -13 -29 -24 -18
-11 -99 -83 -181 -160 -634 -602 -1300 -1923 -2032 -4034 -107 -309 -193 -563
-192 -564 1 0 74 -25 162 -54 88 -29 165 -55 171 -57 7 -3 26 37 47 99 179
527 385 1102 535 1488 549 1423 1074 2389 1540 2837 l127 122 50 -48 c231
-223 568 -253 832 -73 57 39 128 108 170 167 l21 30 103 -70 c57 -39 159 -116
227 -173 118 -96 187 -159 627 -567 202 -187 401 -355 518 -436 l78 -54 -278
-5 -278 -5 -2 -805 -3 -805 -805 -3 -805 -2 0 -835 0 -835 4880 0 4880 0 0
4065 0 4065 -807 0 c-445 1 -1147 1 -1560 0 -530 -1 -753 2 -753 10 0 6 72
207 160 447 88 240 157 440 153 444 -16 14 -333 118 -337 110z m-151 -4228
c-3 -10 -139 -13 -630 -13 -344 0 -625 3 -625 6 0 3 11 24 24 47 13 23 109
209 214 412 243 474 548 1150 801 1780 109 270 202 499 207 510 9 20 19 -2718
9 -2742z m-6280 542 c150 -39 278 -142 345 -279 22 -45 42 -98 46 -119 6 -37
6 -37 -17 -28 -13 6 -84 26 -157 46 -125 33 -142 35 -289 35 l-156 0 -151 -45
c-135 -41 -186 -63 -265 -114 l-24 -15 7 63 c24 212 185 399 393 456 66 18
197 18 268 0z m2600 -235 c12 -135 23 -124 -132 -135 l-99 -7 -11 119 c-6 65
-10 119 -9 120 4 4 183 21 211 19 l30 -1 10 -115z m-5232 -382 c4 -24 9 -77
13 -119 l6 -76 -68 -7 c-38 -4 -92 -9 -120 -12 l-51 -6 -7 44 c-3 23 -9 78
-12 120 l-7 76 44 6 c63 8 108 13 155 14 l42 2 5 -42z m2763 -114 c106 -28
184 -62 184 -79 0 -20 -90 -113 -146 -150 -94 -62 -182 -88 -299 -88 -116 0
-205 26 -296 86 -53 35 -117 94 -108 100 57 42 166 97 244 123 87 28 114 32
212 33 90 1 130 -4 209 -25z m4531 -1431 c-2 -2 -208 -2 -457 -1 l-454 3 116
93 c182 145 425 415 628 695 l165 229 3 -508 c1 -279 1 -509 -1 -511z"/>
</g>
</svg>
