<svg xmlns="http://www.w3.org/2000/svg" version="1.1" viewBox="-5.0 -10.0 110.0 135.0" fill='currentColor'>
 <g>
  <path d="m10.938 75.781h28.125v3.3477c-6.9961 1.8711-5.7461 12.18 1.5625 12.277 7.3086-0.097656 8.5586-10.41 1.5625-12.277v-3.3477h1.1875c2.0508-0.046875 2.0625-3.082 0-3.125h-32.438c-2.5859 0-4.6875-2.1016-4.6875-4.6875v-46.875c0-2.5859 2.1016-4.6875 4.6875-4.6875h42.438c2.0273-0.011719 2.0703-3.0977 0-3.125h-42.438c-4.3086 0-7.8125 3.5039-7.8125 7.8125v46.875c0 4.3086 3.5039 7.8125 7.8125 7.8125zm32.812 9.375c-0.10938 4.1211-6.1406 4.1211-6.25 0 0.10938-4.1211 6.1406-4.1211 6.25 0z"/>
  <path d="m33.586 20.582c-0.69141-0.0625-1.3008 0.32031-1.5703 0.93359l-4.8906 11.281-1.2148-1.4492c-1.3164-1.5547-3.7031 0.43359-2.3945 2.0078 0 0 2.8398 3.3867 2.8398 3.3867 0.70312 0.88672 2.2148 0.66406 2.6289-0.38281l5.4492-12.566 19.113 1.6758c2.0391 0.16797 2.3203-2.9062 0.27344-3.1133z"/>
  <path d="m29.688 57.031c0.86328 0 1.5625-0.69922 1.5625-1.5625v-4.6875h4.6875c0.86328 0 1.5625-0.69922 1.5625-1.5625s-0.69922-1.5625-1.5625-1.5625h-4.6875v-4.6875c0-0.86328-0.69922-1.5625-1.5625-1.5625s-1.5625 0.69922-1.5625 1.5625v4.6875h-4.6875c-0.86328 0-1.5625 0.69922-1.5625 1.5625s0.69922 1.5625 1.5625 1.5625h4.6875v4.6875c0 0.86328 0.69922 1.5625 1.5625 1.5625z"/>
  <path d="m53.125 58.594c0-0.86328-0.69922-1.5625-1.5625-1.5625h-2.4766l1.7539-1.7539c0.60938-0.60938 0.60938-1.6016 0-2.2109s-1.5977-0.60938-2.2109 0l-1.75 1.7539v-2.4766c0-0.86328-0.69922-1.5625-1.5625-1.5625-0.86328 0-1.5625 0.69922-1.5625 1.5625v2.4766l-1.75-1.7539c-0.60938-0.60938-1.5977-0.60938-2.2109 0-0.60938 0.60938-0.60938 1.5977 0 2.2109l1.7539 1.7539h-2.4766c-0.86328 0-1.5625 0.69922-1.5625 1.5625s0.69922 1.5625 1.5625 1.5625h2.4766l-1.7539 1.7539c-0.60938 0.60938-0.60938 1.6016 0 2.2109s1.5977 0.60938 2.2109 0l1.75-1.7539v2.4766c0 0.86328 0.69922 1.5625 1.5625 1.5625 0.86328 0 1.5625-0.69922 1.5625-1.5625v-2.4766l1.75 1.7539c0.60938 0.60938 1.5977 0.60938 2.2109 0 0.60938-0.60938 0.60938-1.5977 0-2.2109l-1.7539-1.7539h2.4766c0.86328 0 1.5625-0.69922 1.5625-1.5625z"/>
  <path d="m59.375 50.781c1.6953 0.027344 2.168-2.4531 0.53906-3.0312l-11.73-4.3164c-1.9336-0.67188-3 2.1875-1.082 2.9336l11.73 4.3164c0.17969 0.066406 0.35938 0.097656 0.53906 0.097656z"/>
  <path d="m42.281 27.719c-2.2266-0.37891-2.5547 3.0469-0.29688 3.0938 1.8516 0.011719 2.1172-2.75 0.29688-3.0938z"/>
  <path d="m44.406 39.047c1.3359 1.3008 3.4453-0.44531 2.4062-1.9844-1.3203-1.8281-3.9336 0.32422-2.4062 1.9844z"/>
  <path d="m36.516 36.539c0.32422 0.80859 1.2578 1.1797 2.0352 0.85938l11.574-4.7148c0.80078-0.32422 1.1836-1.2383 0.85938-2.0352-0.32812-0.79688-1.2422-1.1836-2.0352-0.85938l-11.574 4.7148c-0.80078 0.32422-1.1836 1.2383-0.85938 2.0352z"/>
  <path d="m15.406 59.027c-1.75 0.44141-1.3828 3.0977 0.39844 3.0742 2.6523-0.29297 4.4727-3.2578 3.7305-5.7852l-4.8047-18.125c-0.23047-0.80859 0.29297-1.7109 1.1094-1.9102 0.83594-0.22266 1.332-1.0781 1.1094-1.9102-0.88281-2.4141-3.9688-0.49609-4.7656 1.0664-0.62891 1.082-0.79688 2.3438-0.47656 3.5547l4.8047 18.125c0.23047 0.80859-0.29297 1.7109-1.1094 1.9102z"/>
  <path d="m93.559 35.141c-2.0586-1.0898-4.5156-0.96094-6.4102 0.33203-0.71094 0.48438-0.89844 1.457-0.41016 2.1719 0.48828 0.71484 1.457 0.89844 2.1719 0.41016 0.94922-0.64453 2.1406-0.70313 3.1875-0.14844 0.49609 0.26172 1.6523 1.0547 1.6523 2.75v3.4258h-1.5625c-0.86328 0-1.5625 0.69922-1.5625 1.5625s0.69922 1.5625 1.5625 1.5625h1.5625v3.125h-1.5625c-0.86328 0-1.5625 0.69922-1.5625 1.5625s0.69922 1.5625 1.5625 1.5625h1.5625v3.125h-1.5625c-0.86328 0-1.5625 0.69922-1.5625 1.5625s0.69922 1.5625 1.5625 1.5625h1.5625v3.125h-1.5625c-0.86328 0-1.5625 0.69922-1.5625 1.5625s0.69922 1.5625 1.5625 1.5625h1.5625v3.125h-1.5625c-0.86328 0-1.5625 0.69922-1.5625 1.5625s0.69922 1.5625 1.5625 1.5625h1.5625v3.1211c0 1.7227-1.4023 3.125-3.125 3.125h-37.922c-2.9453-0.11328-4.2031-3.3555-2.1172-5.4258l15.406-14.078c1.5039-1.3789-0.59375-3.6836-2.1094-2.3086l-15.406 14.078c-4.207 3.668-1.3594 10.996 4.2266 10.855h37.922c3.4453 0 6.25-2.8047 6.25-6.25v-34.672c0-2.3555-1.2422-4.4141-3.3164-5.5117z"/>
  <path d="m73.637 62.539c-0.58203-0.63672-1.5742-0.67969-2.207-0.097656l-7.7031 7.0469c-1.0508 0.89844-0.33203 2.7617 1.0547 2.7148h21.156c0.86328 0 1.5625-0.69922 1.5625-1.5625v-10.688c-0.035156-2.0508-3.0898-2.0547-3.125 0v9.125h-15.57l4.7344-4.332c0.63672-0.58203 0.67969-1.5703 0.097657-2.207z"/>
  <path d="m67.984 57.109c0.65625 2.4258 3.4297 3.9336 5.8164 3.168l12-3.5469c2.4844-0.75781 3.8906-3.375 3.1484-5.832-3.7109-12.555-7.8125-26.379-11.535-38.961-0.74219-2.4609-3.3594-3.8789-5.832-3.1562l-11.977 3.5586c-2.4336 0.66406-3.9258 3.4102-3.168 5.8203l11.543 38.949zm-8.4219-41.023c0.19531-0.36328 0.52344-0.62891 0.92969-0.74609l11.977-3.5586c0.80469-0.24219 1.7109 0.22656 1.9531 1.0547l0.88672 3-1.5 0.44531c-0.82812 0.24609-1.3008 1.1172-1.0547 1.9414 0.24219 0.83594 1.1367 1.3008 1.9414 1.0547l1.5-0.44531 0.88672 2.9961-1.5 0.44531c-0.82812 0.24609-1.2969 1.1133-1.0547 1.9414 0.24219 0.83594 1.1367 1.3008 1.9414 1.0547l1.5-0.44531 0.88672 2.9961-1.4961 0.44531c-0.82812 0.24609-1.2969 1.1133-1.0547 1.9414 0.24219 0.83594 1.1367 1.3008 1.9414 1.0547l1.4961-0.44531 0.88672 2.9961-1.4961 0.44141c-0.82812 0.24609-1.2969 1.1133-1.0547 1.9414 0.24219 0.83594 1.1367 1.3008 1.9414 1.0547l1.4961-0.44141 0.88672 2.9961-1.4961 0.44141c-0.82812 0.24609-1.2969 1.1133-1.0547 1.9414 0.24219 0.83594 1.1367 1.3008 1.9414 1.0547l1.4961-0.44141 0.88672 2.9961-1.4922 0.44141c-0.82812 0.24609-1.2969 1.1133-1.0547 1.9414 0.24219 0.83594 1.1367 1.3008 1.9414 1.0547l1.4922-0.44141 0.88672 3c0.24609 0.81641-0.22266 1.6875-1.0508 1.9414l-11.992 3.543c-0.79297 0.25-1.7188-0.24609-1.9336-1.0547l-11.543-38.949c-0.11719-0.40234-0.074219-0.82813 0.125-1.1914z"/>
 </g>
</svg>