<svg xmlns="http://www.w3.org/2000/svg" fill='currentColor' viewBox="0 0 64 80" x="0px" y="0px"><title>math-mathematic--calculation-subject</title><path fill='current' d="M45.05,2.68,41.94,12l-2-5.35A1,1,0,0,0,39,6H37V8h1.31l2.75,7.35A1,1,0,0,0,42,16h0a1,1,0,0,0,.93-.68L46.72,4H61V2H46A1,1,0,0,0,45.05,2.68Z"/><polygon points="56.29 6.29 53 9.59 49.71 6.29 48.29 7.71 51.59 11 48.29 14.29 49.71 15.71 53 12.41 56.29 15.71 57.71 14.29 54.41 11 57.71 7.71 56.29 6.29"/><path d="M3,62H47a1,1,0,0,0,.92-.62,1,1,0,0,0-.21-1.09l-44-44a1,1,0,0,0-1.09-.21A1,1,0,0,0,2,17V61A1,1,0,0,0,3,62ZM6.62,22,5.2,23.44l1.42,1.42L8,23.44l1.41,1.42L8,26.27l1.41,1.42,1.42-1.42,1.41,1.42L10.86,29.1l1.41,1.41,1.42-1.41,1.41,1.41-1.41,1.42,1.41,1.41,1.41-1.41,1.42,1.41-1.42,1.42,1.42,1.41,1.41-1.41,1.42,1.41-1.42,1.42L20.76,39l1.41-1.41L23.59,39l-1.42,1.41,1.42,1.42L25,40.41l1.41,1.42L25,43.24l1.41,1.42,1.42-1.42,1.41,1.42-1.41,1.41,1.41,1.42,1.42-1.42,1.41,1.42L30.66,48.9l1.41,1.41,1.42-1.41,1.41,1.41-1.41,1.42,1.41,1.41,1.41-1.41,1.42,1.41-1.42,1.42L37.73,56l1.41-1.41L40.56,56l-1.42,1.41,1.42,1.42L42,57.38,44.59,60H38V58H36v2H34V58H32v2H30V58H28v2H26V58H24v2H22V58H20v2H18V58H16v2H14V58H12v2H10V58H8v2H4V56H6V54H4V52H6V50H4V48H6V46H4V44H6V42H4V40H6V38H4V36H6V34H4V32H6V30H4V28H6V26H4V19.41Z"/><path d="M11,54H27a1,1,0,0,0,.92-.62,1,1,0,0,0-.21-1.09l-16-16a1,1,0,0,0-1.09-.21A1,1,0,0,0,10,37V53A1,1,0,0,0,11,54Zm1-14.59L24.59,52H12Z"/><path d="M12,11a9,9,0,1,0,9-9A9,9,0,0,0,12,11Zm9,7A7,7,0,0,1,20,4.08V11a1,1,0,0,0,.51.87A1,1,0,0,0,21,12a1,1,0,0,0,.51-.14l5.94-3.57A6.84,6.84,0,0,1,28,11,7,7,0,0,1,21,18ZM26.42,6.58,22,9.23V4.08A7,7,0,0,1,26.42,6.58Z"/><path d="M61.32,33.05a1,1,0,0,0-1.11.34l-14,18a1,1,0,0,0-.11,1A1,1,0,0,0,47,53H61a1,1,0,0,0,1-1V34A1,1,0,0,0,61.32,33.05ZM60,36.91V47H57a1,1,0,0,0-1,1v3H49ZM60,51H58V49h2Z"/><path d="M41.5,23.39A7.91,7.91,0,0,0,37,22a8,8,0,0,0,0,16,7.91,7.91,0,0,0,4.5-1.39A7.91,7.91,0,0,0,46,38a8,8,0,0,0,0-16A7.91,7.91,0,0,0,41.5,23.39ZM49.31,25H43.24l-.19-.22a6,6,0,0,1,6.26.22Zm-4.9,8a7.85,7.85,0,0,0,.52-2h7a6,6,0,0,1-.72,2Zm-5.82-6a7.85,7.85,0,0,0-.52,2h-7a6,6,0,0,1,.72-2Zm-6.78,6a6,6,0,0,1-.72-2h7a7.85,7.85,0,0,0,.52,2ZM40,30a6,6,0,0,1,1.5-4,6,6,0,0,1,0,7.92A6,6,0,0,1,40,30Zm4.93-1a7.85,7.85,0,0,0-.52-2h6.78a6,6,0,0,1,.72,2Zm-5-4.22-.19.22H33.69A6,6,0,0,1,40,24.78ZM33.69,35h6.07l.19.22A6,6,0,0,1,33.69,35Zm9.36.22.19-.22h6.07a6,6,0,0,1-6.26.22Z"/>
<text x="0" y="84" fill="#000000" font-size="5px" font-weight="bold" font-family="'Helvetica Neue', Helvetica, Arial-Unicode, Arial, Sans-serif">from the Noun Project</text></svg>